<mxfile host="app.diagrams.net" modified="2023-12-05T15:40:48.905Z" agent="Mozilla/5.0 (Windows NT 10.0; Win64; x64) AppleWebKit/537.36 (KHTML, like Gecko) Chrome/119.0.0.0 Safari/537.36 Edg/119.0.0.0" etag="3UmGNi7tqFK0-JVPQF__" version="22.1.5" type="device">
  <diagram id="C5RBs43oDa-KdzZeNtuy" name="Page-1">
    <mxGraphModel dx="3048" dy="1012" grid="1" gridSize="10" guides="1" tooltips="1" connect="1" arrows="1" fold="1" page="1" pageScale="1" pageWidth="827" pageHeight="1169" math="0" shadow="0">
      <root>
        <mxCell id="WIyWlLk6GJQsqaUBKTNV-0" />
        <mxCell id="WIyWlLk6GJQsqaUBKTNV-1" parent="WIyWlLk6GJQsqaUBKTNV-0" />
        <mxCell id="CqZirn-vgnx0ZASu8Ui6-26" style="edgeStyle=orthogonalEdgeStyle;rounded=0;orthogonalLoop=1;jettySize=auto;html=1;fontSize=16;fontFamily=Times New Roman;fillColor=#60a917;strokeColor=#2D7600;" parent="WIyWlLk6GJQsqaUBKTNV-1" source="CqZirn-vgnx0ZASu8Ui6-0" target="CqZirn-vgnx0ZASu8Ui6-24" edge="1">
          <mxGeometry relative="1" as="geometry" />
        </mxCell>
        <mxCell id="CqZirn-vgnx0ZASu8Ui6-0" value="Початок інвентаризації" style="strokeWidth=2;html=1;shape=mxgraph.flowchart.terminator;whiteSpace=wrap;fontSize=16;fontFamily=Times New Roman;fillColor=#e1d5e7;strokeColor=#9673a6;" parent="WIyWlLk6GJQsqaUBKTNV-1" vertex="1">
          <mxGeometry x="185" y="30" width="110" height="70" as="geometry" />
        </mxCell>
        <mxCell id="CqZirn-vgnx0ZASu8Ui6-5" style="edgeStyle=orthogonalEdgeStyle;rounded=0;orthogonalLoop=1;jettySize=auto;html=1;fontSize=16;fontFamily=Times New Roman;fillColor=#60a917;strokeColor=#2D7600;" parent="WIyWlLk6GJQsqaUBKTNV-1" source="CqZirn-vgnx0ZASu8Ui6-2" target="CqZirn-vgnx0ZASu8Ui6-4" edge="1">
          <mxGeometry relative="1" as="geometry" />
        </mxCell>
        <mxCell id="CqZirn-vgnx0ZASu8Ui6-19" value="ТАК" style="edgeLabel;html=1;align=center;verticalAlign=middle;resizable=0;points=[];fontSize=16;fontFamily=Times New Roman;labelBackgroundColor=#bece46;" parent="CqZirn-vgnx0ZASu8Ui6-5" vertex="1" connectable="0">
          <mxGeometry x="-0.2094" y="-1" relative="1" as="geometry">
            <mxPoint as="offset" />
          </mxGeometry>
        </mxCell>
        <mxCell id="CqZirn-vgnx0ZASu8Ui6-7" style="edgeStyle=orthogonalEdgeStyle;rounded=0;orthogonalLoop=1;jettySize=auto;html=1;fontSize=16;fontFamily=Times New Roman;" parent="WIyWlLk6GJQsqaUBKTNV-1" source="CqZirn-vgnx0ZASu8Ui6-2" target="CqZirn-vgnx0ZASu8Ui6-6" edge="1">
          <mxGeometry relative="1" as="geometry" />
        </mxCell>
        <mxCell id="CqZirn-vgnx0ZASu8Ui6-18" value="НІ" style="edgeLabel;html=1;align=center;verticalAlign=middle;resizable=0;points=[];fontSize=16;fontFamily=Times New Roman;labelBackgroundColor=#bece46;" parent="CqZirn-vgnx0ZASu8Ui6-7" vertex="1" connectable="0">
          <mxGeometry x="-0.1529" y="1" relative="1" as="geometry">
            <mxPoint as="offset" />
          </mxGeometry>
        </mxCell>
        <mxCell id="CqZirn-vgnx0ZASu8Ui6-2" value="Чи є товари для підрахунку?" style="strokeWidth=2;html=1;shape=mxgraph.flowchart.decision;whiteSpace=wrap;fontSize=16;fontFamily=Times New Roman;fillColor=#dae8fc;strokeColor=#6c8ebf;" parent="WIyWlLk6GJQsqaUBKTNV-1" vertex="1">
          <mxGeometry x="160" y="230" width="160" height="130" as="geometry" />
        </mxCell>
        <mxCell id="CqZirn-vgnx0ZASu8Ui6-9" style="edgeStyle=orthogonalEdgeStyle;rounded=0;orthogonalLoop=1;jettySize=auto;html=1;fontSize=16;fontFamily=Times New Roman;fillColor=#60a917;strokeColor=#2D7600;" parent="WIyWlLk6GJQsqaUBKTNV-1" source="CqZirn-vgnx0ZASu8Ui6-4" target="CqZirn-vgnx0ZASu8Ui6-8" edge="1">
          <mxGeometry relative="1" as="geometry" />
        </mxCell>
        <mxCell id="CqZirn-vgnx0ZASu8Ui6-4" value="Підрахунок товарів" style="rounded=0;whiteSpace=wrap;html=1;fontSize=16;fontFamily=Times New Roman;fillColor=#f8cecc;strokeColor=#b85450;" parent="WIyWlLk6GJQsqaUBKTNV-1" vertex="1">
          <mxGeometry x="180" y="410" width="120" height="60" as="geometry" />
        </mxCell>
        <mxCell id="CqZirn-vgnx0ZASu8Ui6-15" style="edgeStyle=orthogonalEdgeStyle;rounded=0;orthogonalLoop=1;jettySize=auto;html=1;entryX=0.224;entryY=0.267;entryDx=0;entryDy=0;entryPerimeter=0;fontSize=16;fontFamily=Times New Roman;fillColor=#60a917;strokeColor=#2D7600;" parent="WIyWlLk6GJQsqaUBKTNV-1" source="CqZirn-vgnx0ZASu8Ui6-6" target="CqZirn-vgnx0ZASu8Ui6-8" edge="1">
          <mxGeometry relative="1" as="geometry">
            <mxPoint x="140" y="600" as="targetPoint" />
            <Array as="points">
              <mxPoint x="50" y="550" />
            </Array>
          </mxGeometry>
        </mxCell>
        <mxCell id="CqZirn-vgnx0ZASu8Ui6-6" value="Перевірка Документації" style="rounded=0;whiteSpace=wrap;html=1;fontSize=16;fontFamily=Times New Roman;fillColor=#f8cecc;strokeColor=#b85450;" parent="WIyWlLk6GJQsqaUBKTNV-1" vertex="1">
          <mxGeometry x="-10" y="265" width="120" height="60" as="geometry" />
        </mxCell>
        <mxCell id="CqZirn-vgnx0ZASu8Ui6-14" style="edgeStyle=orthogonalEdgeStyle;rounded=0;orthogonalLoop=1;jettySize=auto;html=1;fontSize=16;fontFamily=Times New Roman;fillColor=#60a917;strokeColor=#2D7600;" parent="WIyWlLk6GJQsqaUBKTNV-1" source="CqZirn-vgnx0ZASu8Ui6-8" target="CqZirn-vgnx0ZASu8Ui6-28" edge="1">
          <mxGeometry relative="1" as="geometry">
            <mxPoint x="240" y="700" as="targetPoint" />
          </mxGeometry>
        </mxCell>
        <mxCell id="CqZirn-vgnx0ZASu8Ui6-21" value="ТАК" style="edgeLabel;html=1;align=center;verticalAlign=middle;resizable=0;points=[];fontSize=16;fontFamily=Times New Roman;labelBackgroundColor=#bece46;" parent="CqZirn-vgnx0ZASu8Ui6-14" vertex="1" connectable="0">
          <mxGeometry x="-0.3059" y="1" relative="1" as="geometry">
            <mxPoint as="offset" />
          </mxGeometry>
        </mxCell>
        <mxCell id="CqZirn-vgnx0ZASu8Ui6-17" style="edgeStyle=orthogonalEdgeStyle;rounded=0;orthogonalLoop=1;jettySize=auto;html=1;fontSize=16;fontFamily=Times New Roman;fillColor=#60a917;strokeColor=#2D7600;" parent="WIyWlLk6GJQsqaUBKTNV-1" source="CqZirn-vgnx0ZASu8Ui6-8" target="CqZirn-vgnx0ZASu8Ui6-16" edge="1">
          <mxGeometry relative="1" as="geometry" />
        </mxCell>
        <mxCell id="CqZirn-vgnx0ZASu8Ui6-20" value="НІ" style="edgeLabel;html=1;align=center;verticalAlign=middle;resizable=0;points=[];fontSize=16;fontFamily=Times New Roman;labelBackgroundColor=#bece46;" parent="CqZirn-vgnx0ZASu8Ui6-17" vertex="1" connectable="0">
          <mxGeometry x="-0.0772" y="-1" relative="1" as="geometry">
            <mxPoint as="offset" />
          </mxGeometry>
        </mxCell>
        <mxCell id="CqZirn-vgnx0ZASu8Ui6-34" style="edgeStyle=orthogonalEdgeStyle;rounded=0;orthogonalLoop=1;jettySize=auto;html=1;entryX=0;entryY=0.5;entryDx=0;entryDy=0;fontSize=16;fontFamily=Times New Roman;fillColor=#60a917;strokeColor=#2D7600;" parent="WIyWlLk6GJQsqaUBKTNV-1" source="CqZirn-vgnx0ZASu8Ui6-8" target="CqZirn-vgnx0ZASu8Ui6-33" edge="1">
          <mxGeometry relative="1" as="geometry" />
        </mxCell>
        <mxCell id="CqZirn-vgnx0ZASu8Ui6-8" value="Чи відповідає кількість документації?" style="strokeWidth=2;html=1;shape=mxgraph.flowchart.decision;whiteSpace=wrap;fontSize=16;fontFamily=Times New Roman;fillColor=#dae8fc;strokeColor=#6c8ebf;" parent="WIyWlLk6GJQsqaUBKTNV-1" vertex="1">
          <mxGeometry x="167.5" y="510" width="145" height="150" as="geometry" />
        </mxCell>
        <mxCell id="CqZirn-vgnx0ZASu8Ui6-23" style="edgeStyle=orthogonalEdgeStyle;rounded=0;orthogonalLoop=1;jettySize=auto;html=1;fontSize=16;fontFamily=Times New Roman;fillColor=#60a917;strokeColor=#2D7600;" parent="WIyWlLk6GJQsqaUBKTNV-1" source="CqZirn-vgnx0ZASu8Ui6-16" target="CqZirn-vgnx0ZASu8Ui6-22" edge="1">
          <mxGeometry relative="1" as="geometry" />
        </mxCell>
        <mxCell id="CqZirn-vgnx0ZASu8Ui6-16" value="Виявлення розбіжностей" style="rounded=0;whiteSpace=wrap;html=1;fontSize=16;fontFamily=Times New Roman;fillColor=#f8cecc;strokeColor=#b85450;" parent="WIyWlLk6GJQsqaUBKTNV-1" vertex="1">
          <mxGeometry x="-10" y="590" width="120" height="60" as="geometry" />
        </mxCell>
        <mxCell id="CqZirn-vgnx0ZASu8Ui6-29" style="edgeStyle=orthogonalEdgeStyle;rounded=0;orthogonalLoop=1;jettySize=auto;html=1;fontSize=16;fontFamily=Times New Roman;fillColor=#60a917;strokeColor=#2D7600;" parent="WIyWlLk6GJQsqaUBKTNV-1" source="CqZirn-vgnx0ZASu8Ui6-22" target="CqZirn-vgnx0ZASu8Ui6-28" edge="1">
          <mxGeometry relative="1" as="geometry" />
        </mxCell>
        <mxCell id="CqZirn-vgnx0ZASu8Ui6-22" value="Коригування документації" style="rounded=0;whiteSpace=wrap;html=1;fontSize=16;fontFamily=Times New Roman;fillColor=#f8cecc;strokeColor=#b85450;" parent="WIyWlLk6GJQsqaUBKTNV-1" vertex="1">
          <mxGeometry x="-10" y="700" width="120" height="60" as="geometry" />
        </mxCell>
        <mxCell id="CqZirn-vgnx0ZASu8Ui6-27" style="edgeStyle=orthogonalEdgeStyle;rounded=0;orthogonalLoop=1;jettySize=auto;html=1;fontSize=16;fontFamily=Times New Roman;fillColor=#60a917;strokeColor=#2D7600;" parent="WIyWlLk6GJQsqaUBKTNV-1" source="CqZirn-vgnx0ZASu8Ui6-24" target="CqZirn-vgnx0ZASu8Ui6-2" edge="1">
          <mxGeometry relative="1" as="geometry" />
        </mxCell>
        <mxCell id="CqZirn-vgnx0ZASu8Ui6-24" value="Вибір складу" style="shape=parallelogram;html=1;strokeWidth=2;perimeter=parallelogramPerimeter;whiteSpace=wrap;rounded=1;arcSize=12;size=0.23;fontSize=16;fontFamily=Times New Roman;fillColor=#d5e8d4;strokeColor=#82b366;" parent="WIyWlLk6GJQsqaUBKTNV-1" vertex="1">
          <mxGeometry x="185" y="140" width="110" height="60" as="geometry" />
        </mxCell>
        <mxCell id="CqZirn-vgnx0ZASu8Ui6-31" style="edgeStyle=orthogonalEdgeStyle;rounded=0;orthogonalLoop=1;jettySize=auto;html=1;fontSize=16;fontFamily=Times New Roman;fillColor=#60a917;strokeColor=#2D7600;" parent="WIyWlLk6GJQsqaUBKTNV-1" source="CqZirn-vgnx0ZASu8Ui6-28" target="CqZirn-vgnx0ZASu8Ui6-30" edge="1">
          <mxGeometry relative="1" as="geometry" />
        </mxCell>
        <mxCell id="CqZirn-vgnx0ZASu8Ui6-28" value="Завершення інвентаризації" style="shape=parallelogram;html=1;strokeWidth=2;perimeter=parallelogramPerimeter;whiteSpace=wrap;rounded=1;arcSize=12;size=0.23;fontSize=16;fontFamily=Times New Roman;fillColor=#d5e8d4;strokeColor=#82b366;" parent="WIyWlLk6GJQsqaUBKTNV-1" vertex="1">
          <mxGeometry x="170" y="770" width="140" height="60" as="geometry" />
        </mxCell>
        <mxCell id="CqZirn-vgnx0ZASu8Ui6-30" value="Кінець інвентаризації" style="strokeWidth=2;html=1;shape=mxgraph.flowchart.terminator;whiteSpace=wrap;fontSize=16;fontFamily=Times New Roman;fillColor=#e1d5e7;strokeColor=#9673a6;" parent="WIyWlLk6GJQsqaUBKTNV-1" vertex="1">
          <mxGeometry x="185" y="890" width="110" height="70" as="geometry" />
        </mxCell>
        <mxCell id="CqZirn-vgnx0ZASu8Ui6-36" style="edgeStyle=orthogonalEdgeStyle;rounded=0;orthogonalLoop=1;jettySize=auto;html=1;fontSize=16;fontFamily=Times New Roman;fillColor=#60a917;strokeColor=#2D7600;" parent="WIyWlLk6GJQsqaUBKTNV-1" source="CqZirn-vgnx0ZASu8Ui6-33" target="CqZirn-vgnx0ZASu8Ui6-35" edge="1">
          <mxGeometry relative="1" as="geometry" />
        </mxCell>
        <mxCell id="CqZirn-vgnx0ZASu8Ui6-33" value="Перевірка серійних номерів" style="rounded=0;whiteSpace=wrap;html=1;fontSize=16;fontFamily=Times New Roman;fillColor=#f8cecc;strokeColor=#b85450;" parent="WIyWlLk6GJQsqaUBKTNV-1" vertex="1">
          <mxGeometry x="460" y="250" width="120" height="60" as="geometry" />
        </mxCell>
        <mxCell id="CqZirn-vgnx0ZASu8Ui6-40" style="edgeStyle=orthogonalEdgeStyle;rounded=0;orthogonalLoop=1;jettySize=auto;html=1;entryX=0.5;entryY=0;entryDx=0;entryDy=0;fontSize=16;fontFamily=Times New Roman;fillColor=#60a917;strokeColor=#2D7600;" parent="WIyWlLk6GJQsqaUBKTNV-1" source="CqZirn-vgnx0ZASu8Ui6-35" target="CqZirn-vgnx0ZASu8Ui6-39" edge="1">
          <mxGeometry relative="1" as="geometry" />
        </mxCell>
        <mxCell id="CqZirn-vgnx0ZASu8Ui6-59" value="НІ" style="edgeLabel;html=1;align=center;verticalAlign=middle;resizable=0;points=[];fontSize=16;fontFamily=Times New Roman;labelBackgroundColor=#bece46;" parent="CqZirn-vgnx0ZASu8Ui6-40" vertex="1" connectable="0">
          <mxGeometry x="-0.6418" y="-2" relative="1" as="geometry">
            <mxPoint as="offset" />
          </mxGeometry>
        </mxCell>
        <mxCell id="CqZirn-vgnx0ZASu8Ui6-43" style="edgeStyle=orthogonalEdgeStyle;rounded=0;orthogonalLoop=1;jettySize=auto;html=1;fontSize=16;fontFamily=Times New Roman;fillColor=#60a917;strokeColor=#2D7600;" parent="WIyWlLk6GJQsqaUBKTNV-1" source="CqZirn-vgnx0ZASu8Ui6-35" target="CqZirn-vgnx0ZASu8Ui6-42" edge="1">
          <mxGeometry relative="1" as="geometry" />
        </mxCell>
        <mxCell id="CqZirn-vgnx0ZASu8Ui6-57" value="ТАК" style="edgeLabel;html=1;align=center;verticalAlign=middle;resizable=0;points=[];fontSize=16;fontFamily=Times New Roman;labelBackgroundColor=#bece46;" parent="CqZirn-vgnx0ZASu8Ui6-43" vertex="1" connectable="0">
          <mxGeometry x="-0.0863" y="-1" relative="1" as="geometry">
            <mxPoint as="offset" />
          </mxGeometry>
        </mxCell>
        <mxCell id="CqZirn-vgnx0ZASu8Ui6-35" value="Чи всі номери відповідають?" style="strokeWidth=2;html=1;shape=mxgraph.flowchart.decision;whiteSpace=wrap;fontSize=16;fontFamily=Times New Roman;fillColor=#dae8fc;strokeColor=#6c8ebf;" parent="WIyWlLk6GJQsqaUBKTNV-1" vertex="1">
          <mxGeometry x="462" y="360" width="116" height="110" as="geometry" />
        </mxCell>
        <mxCell id="CqZirn-vgnx0ZASu8Ui6-69" style="edgeStyle=orthogonalEdgeStyle;rounded=0;orthogonalLoop=1;jettySize=auto;html=1;entryX=0.5;entryY=0;entryDx=0;entryDy=0;fillColor=#60a917;strokeColor=#2D7600;" parent="WIyWlLk6GJQsqaUBKTNV-1" source="CqZirn-vgnx0ZASu8Ui6-39" target="CqZirn-vgnx0ZASu8Ui6-44" edge="1">
          <mxGeometry relative="1" as="geometry" />
        </mxCell>
        <mxCell id="CqZirn-vgnx0ZASu8Ui6-39" value="Внесення змін до бази данних" style="rounded=0;whiteSpace=wrap;html=1;fontSize=16;fontFamily=Times New Roman;fillColor=#f8cecc;strokeColor=#b85450;" parent="WIyWlLk6GJQsqaUBKTNV-1" vertex="1">
          <mxGeometry x="636" y="590" width="120" height="60" as="geometry" />
        </mxCell>
        <mxCell id="CqZirn-vgnx0ZASu8Ui6-45" style="edgeStyle=orthogonalEdgeStyle;rounded=0;orthogonalLoop=1;jettySize=auto;html=1;fontSize=16;fontFamily=Times New Roman;" parent="WIyWlLk6GJQsqaUBKTNV-1" source="CqZirn-vgnx0ZASu8Ui6-42" target="CqZirn-vgnx0ZASu8Ui6-44" edge="1">
          <mxGeometry relative="1" as="geometry" />
        </mxCell>
        <mxCell id="CqZirn-vgnx0ZASu8Ui6-47" value="" style="edgeStyle=orthogonalEdgeStyle;rounded=0;orthogonalLoop=1;jettySize=auto;html=1;fontSize=16;fontFamily=Times New Roman;fillColor=#60a917;strokeColor=#2D7600;" parent="WIyWlLk6GJQsqaUBKTNV-1" source="CqZirn-vgnx0ZASu8Ui6-42" target="CqZirn-vgnx0ZASu8Ui6-44" edge="1">
          <mxGeometry relative="1" as="geometry" />
        </mxCell>
        <mxCell id="CqZirn-vgnx0ZASu8Ui6-42" value="Продовження підрахунку" style="rounded=0;whiteSpace=wrap;html=1;fontSize=16;fontFamily=Times New Roman;fillColor=#f8cecc;strokeColor=#b85450;" parent="WIyWlLk6GJQsqaUBKTNV-1" vertex="1">
          <mxGeometry x="460" y="530" width="120" height="60" as="geometry" />
        </mxCell>
        <mxCell id="CqZirn-vgnx0ZASu8Ui6-49" style="edgeStyle=orthogonalEdgeStyle;rounded=0;orthogonalLoop=1;jettySize=auto;html=1;fontSize=16;fontFamily=Times New Roman;fillColor=#60a917;strokeColor=#2D7600;" parent="WIyWlLk6GJQsqaUBKTNV-1" source="CqZirn-vgnx0ZASu8Ui6-44" target="CqZirn-vgnx0ZASu8Ui6-48" edge="1">
          <mxGeometry relative="1" as="geometry" />
        </mxCell>
        <mxCell id="CqZirn-vgnx0ZASu8Ui6-44" value="Перевірка терміну придатності товарів" style="rounded=0;whiteSpace=wrap;html=1;fontSize=16;fontFamily=Times New Roman;fillColor=#f8cecc;strokeColor=#b85450;" parent="WIyWlLk6GJQsqaUBKTNV-1" vertex="1">
          <mxGeometry x="445" y="640" width="150" height="80" as="geometry" />
        </mxCell>
        <mxCell id="CqZirn-vgnx0ZASu8Ui6-52" style="edgeStyle=orthogonalEdgeStyle;rounded=0;orthogonalLoop=1;jettySize=auto;html=1;fontSize=16;fontFamily=Times New Roman;fillColor=#60a917;strokeColor=#2D7600;" parent="WIyWlLk6GJQsqaUBKTNV-1" source="CqZirn-vgnx0ZASu8Ui6-48" target="CqZirn-vgnx0ZASu8Ui6-50" edge="1">
          <mxGeometry relative="1" as="geometry" />
        </mxCell>
        <mxCell id="CqZirn-vgnx0ZASu8Ui6-56" value="ТАК" style="edgeLabel;html=1;align=center;verticalAlign=middle;resizable=0;points=[];fontSize=16;fontFamily=Times New Roman;labelBackgroundColor=#bece46;" parent="CqZirn-vgnx0ZASu8Ui6-52" vertex="1" connectable="0">
          <mxGeometry x="-0.2329" y="1" relative="1" as="geometry">
            <mxPoint as="offset" />
          </mxGeometry>
        </mxCell>
        <mxCell id="CqZirn-vgnx0ZASu8Ui6-62" style="edgeStyle=orthogonalEdgeStyle;rounded=0;orthogonalLoop=1;jettySize=auto;html=1;entryX=0.5;entryY=1;entryDx=0;entryDy=0;fontSize=16;fontFamily=Times New Roman;fillColor=#60a917;strokeColor=#2D7600;" parent="WIyWlLk6GJQsqaUBKTNV-1" source="CqZirn-vgnx0ZASu8Ui6-48" target="CqZirn-vgnx0ZASu8Ui6-61" edge="1">
          <mxGeometry relative="1" as="geometry" />
        </mxCell>
        <mxCell id="CqZirn-vgnx0ZASu8Ui6-63" value="НІ" style="edgeLabel;html=1;align=center;verticalAlign=middle;resizable=0;points=[];fontSize=16;fontFamily=Times New Roman;labelBackgroundColor=#bece46;" parent="CqZirn-vgnx0ZASu8Ui6-62" vertex="1" connectable="0">
          <mxGeometry x="-0.2159" y="-3" relative="1" as="geometry">
            <mxPoint as="offset" />
          </mxGeometry>
        </mxCell>
        <mxCell id="CqZirn-vgnx0ZASu8Ui6-48" value="Чи всі товари придатні?" style="strokeWidth=2;html=1;shape=mxgraph.flowchart.decision;whiteSpace=wrap;fontSize=16;fontFamily=Times New Roman;fillColor=#dae8fc;strokeColor=#6c8ebf;" parent="WIyWlLk6GJQsqaUBKTNV-1" vertex="1">
          <mxGeometry x="465" y="750" width="110" height="110" as="geometry" />
        </mxCell>
        <mxCell id="CqZirn-vgnx0ZASu8Ui6-68" style="edgeStyle=orthogonalEdgeStyle;rounded=0;orthogonalLoop=1;jettySize=auto;html=1;entryX=1;entryY=0.25;entryDx=0;entryDy=0;fillColor=#60a917;strokeColor=#2D7600;" parent="WIyWlLk6GJQsqaUBKTNV-1" source="CqZirn-vgnx0ZASu8Ui6-50" target="CqZirn-vgnx0ZASu8Ui6-28" edge="1">
          <mxGeometry relative="1" as="geometry">
            <Array as="points">
              <mxPoint x="301" y="900" />
            </Array>
          </mxGeometry>
        </mxCell>
        <mxCell id="CqZirn-vgnx0ZASu8Ui6-50" value="Превірка умов зберігання" style="rounded=0;whiteSpace=wrap;html=1;fontSize=16;fontFamily=Times New Roman;fillColor=#f8cecc;strokeColor=#b85450;" parent="WIyWlLk6GJQsqaUBKTNV-1" vertex="1">
          <mxGeometry x="460" y="900" width="120" height="60" as="geometry" />
        </mxCell>
        <mxCell id="CqZirn-vgnx0ZASu8Ui6-67" style="edgeStyle=orthogonalEdgeStyle;rounded=0;orthogonalLoop=1;jettySize=auto;html=1;fillColor=#60a917;strokeColor=#2D7600;" parent="WIyWlLk6GJQsqaUBKTNV-1" source="CqZirn-vgnx0ZASu8Ui6-61" target="CqZirn-vgnx0ZASu8Ui6-28" edge="1">
          <mxGeometry relative="1" as="geometry" />
        </mxCell>
        <mxCell id="CqZirn-vgnx0ZASu8Ui6-61" value="Вилучення непридатних товарів" style="rounded=0;whiteSpace=wrap;html=1;fontSize=16;fontFamily=Times New Roman;fillColor=#f8cecc;strokeColor=#b85450;" parent="WIyWlLk6GJQsqaUBKTNV-1" vertex="1">
          <mxGeometry x="312.5" y="680" width="120" height="60" as="geometry" />
        </mxCell>
        <mxCell id="CqZirn-vgnx0ZASu8Ui6-70" value="&lt;font style=&quot;&quot;&gt;&lt;span style=&quot;font-size: 20px;&quot;&gt;Лабораторна робота №6&lt;/span&gt;&lt;br style=&quot;font-size: 20px;&quot;&gt;&lt;b style=&quot;&quot;&gt;&lt;font style=&quot;&quot;&gt;&lt;font style=&quot;font-size: 24px;&quot;&gt;Використання онлайн сервісу Draw.io для документування розроблених програм&lt;/font&gt;&lt;br style=&quot;font-size: 20px;&quot;&gt;&lt;div style=&quot;font-size: 20px; text-align: left;&quot;&gt;&lt;span style=&quot;background-color: initial; font-weight: normal; font-size: 20px;&quot;&gt;Виконав студент 612п Кузьменко Дмитро Олександрович&lt;/span&gt;&lt;/div&gt;&lt;/font&gt;&lt;/b&gt;&lt;/font&gt;&lt;div style=&quot;text-align: left; font-size: 20px;&quot;&gt;&lt;font style=&quot;font-size: 20px;&quot;&gt;&lt;span style=&quot;background-color: initial; font-size: 20px;&quot;&gt;Перевірив:&amp;nbsp;&lt;/span&gt;&lt;span style=&quot;text-align: right; background-color: initial; font-size: 20px;&quot;&gt;к.е.н., доцент каф. 603&amp;nbsp;&lt;/span&gt;&lt;span style=&quot;text-align: right; background-color: initial; font-size: 20px;&quot;&gt;&lt;span style=&quot;line-height: 107%; font-size: 20px;&quot;&gt;Дем’яненко О.С.&lt;/span&gt;&lt;/span&gt;&lt;/font&gt;&lt;/div&gt;&lt;div style=&quot;text-align: left; font-size: 20px;&quot;&gt;&lt;span style=&quot;background-color: initial; font-size: 20px;&quot;&gt;&lt;font style=&quot;font-size: 20px;&quot;&gt;URL адреса:&lt;/font&gt;&lt;/span&gt;&lt;/div&gt;&lt;div style=&quot;text-align: left;&quot;&gt;https://github.com/OrixoN/Lab_6_OPI.git&lt;/div&gt;&lt;div style=&quot;text-align: left;&quot;&gt;https://drive.google.com/drive/folders/1L33WDqydaokVpIgeWMHQT5zeyDj1K7SA?usp=sharing&lt;br&gt;&lt;/div&gt;" style="rounded=0;whiteSpace=wrap;html=1;fontFamily=Times New Roman;fontSize=20;" parent="WIyWlLk6GJQsqaUBKTNV-1" vertex="1">
          <mxGeometry x="595" y="30" width="705" height="290" as="geometry" />
        </mxCell>
      </root>
    </mxGraphModel>
  </diagram>
</mxfile>
